<mxfile host="app.diagrams.net" modified="2024-06-19T12:15:25.664Z" agent="Mozilla/5.0 (Windows NT 10.0; Win64; x64) AppleWebKit/537.36 (KHTML, like Gecko) Chrome/126.0.0.0 Safari/537.36" version="24.5.5" etag="6b-Ctot0pZL6SaWw4pf5" type="github">
  <diagram name="Страница — 1" id="HPxr1YhvrDYkWpEFoF1q">
    <mxGraphModel>
      <root>
        <mxCell id="0" />
        <mxCell id="1" parent="0" />
      </root>
    </mxGraphModel>
  </diagram>
</mxfile>
